<?xml version="1.0" encoding="UTF-8" standalone="no"?>
<svg
   xmlns:dc="http://purl.org/dc/elements/1.1/"
   xmlns:cc="http://creativecommons.org/ns#"
   xmlns:rdf="http://www.w3.org/1999/02/22-rdf-syntax-ns#"
   xmlns:svg="http://www.w3.org/2000/svg"
   xmlns="http://www.w3.org/2000/svg"
   xmlns:sodipodi="http://sodipodi.sourceforge.net/DTD/sodipodi-0.dtd"
   xmlns:inkscape="http://www.inkscape.org/namespaces/inkscape"
   viewBox="-0.12979373 0 8.9963422 9.0322581"
   width="700"
   height="700"
   version="1.1"
   id="svg24"
   sodipodi:docname="word-logo.svg"
   inkscape:export-filename="C:\Users\alex\sites\word-logo-0.png"
   inkscape:export-xdpi="561.73999"
   inkscape:export-ydpi="561.73999"
   inkscape:version="0.92.1 r15371">
  <metadata
     id="metadata30">
    <rdf:RDF>
      <cc:Work
         rdf:about="">
        <dc:format>image/svg+xml</dc:format>
        <dc:type
           rdf:resource="http://purl.org/dc/dcmitype/StillImage" />
        <dc:title></dc:title>
      </cc:Work>
    </rdf:RDF>
  </metadata>
  <defs
     id="defs28" />
  <sodipodi:namedview
     pagecolor="#ffffff"
     bordercolor="#666666"
     borderopacity="1"
     objecttolerance="10"
     gridtolerance="10"
     guidetolerance="10"
     inkscape:pageopacity="0"
     inkscape:pageshadow="2"
     inkscape:window-width="1600"
     inkscape:window-height="838"
     id="namedview26"
     showgrid="false"
     inkscape:zoom="0.53831355"
     inkscape:cx="242.62224"
     inkscape:cy="344.34655"
     inkscape:window-x="-8"
     inkscape:window-y="-8"
     inkscape:window-maximized="1"
     inkscape:current-layer="svg24" />
  <path
     d="M 7.1650511,1.8466375 H 3.0971274 A 0.25417373,0.25417373 0 0 0 2.8429536,2.1008112 V 3.1813833 L 5.1310892,3.8487562 7.4192248,3.1813833 V 2.1008112 A 0.25417373,0.25417373 0 0 0 7.1650511,1.8466375 Z"
     id="path2"
     inkscape:connector-curvature="0"
     style="fill:#41a5ee;stroke-width:0.19067797"
     inkscape:export-filename="C:\Users\alex\sites\word-logo-4.png"
     inkscape:export-xdpi="81.2043"
     inkscape:export-ydpi="81.2043" />
  <path
     d="M 7.4192248,3.1813833 H 2.8429536 V 4.5161291 L 5.1310892,5.1835019 7.4192248,4.5161291 Z"
     id="path4"
     inkscape:connector-curvature="0"
     style="fill:#2b7cd3;stroke-width:0.19067797"
     inkscape:export-filename="C:\Users\alex\sites\word-logo-4.png"
     inkscape:export-xdpi="81.2043"
     inkscape:export-ydpi="81.2043" />
  <path
     d="M 7.4192248,4.5161291 H 2.8429536 V 5.8508748 L 5.1310892,6.5182477 7.4192248,5.8508748 Z"
     id="path6"
     inkscape:connector-curvature="0"
     style="fill:#185abd;stroke-width:0.19067797"
     inkscape:export-filename="C:\Users\alex\sites\word-logo-4.png"
     inkscape:export-xdpi="81.2043"
     inkscape:export-ydpi="81.2043" />
  <path
     d="M 7.4192248,5.8508748 H 2.8429536 v 1.080572 A 0.25417373,0.25417373 0 0 0 3.0971274,7.1856206 H 7.1650511 A 0.25417373,0.25417373 0 0 0 7.4192248,6.9314468 Z"
     id="path8"
     inkscape:connector-curvature="0"
     style="fill:#103f91;stroke-width:0.19067797"
     inkscape:export-filename="C:\Users\alex\sites\word-logo-4.png"
     inkscape:export-xdpi="81.2043"
     inkscape:export-ydpi="81.2043" />
  <path
     d="m 4.4955596,2.8000273 h -1.652606 v 3.6228814 h 1.652606 A 0.25493644,0.25493644 0 0 0 4.7497333,6.168735 V 3.0542011 A 0.25493644,0.25493644 0 0 0 4.4955596,2.8000273 Z"
     id="path10"
     inkscape:connector-curvature="0"
     style="opacity:0.1;stroke-width:0.19067797"
     inkscape:export-filename="C:\Users\alex\sites\word-logo-4.png"
     inkscape:export-xdpi="81.2043"
     inkscape:export-ydpi="81.2043" />
  <path
     d="m 4.3048816,2.9907053 h -1.461928 v 3.6228814 h 1.461928 A 0.25493644,0.25493644 0 0 0 4.5590553,6.3594129 V 3.244879 A 0.25493644,0.25493644 0 0 0 4.3048816,2.9907053 Z"
     id="path12"
     inkscape:connector-curvature="0"
     style="opacity:0.2;stroke-width:0.19067797"
     inkscape:export-filename="C:\Users\alex\sites\word-logo-4.png"
     inkscape:export-xdpi="81.2043"
     inkscape:export-ydpi="81.2043" />
  <path
     d="m 4.3048816,2.9907053 h -1.461928 v 3.2415254 h 1.461928 A 0.25493644,0.25493644 0 0 0 4.5590553,5.978057 V 3.244879 A 0.25493644,0.25493644 0 0 0 4.3048816,2.9907053 Z"
     id="path14"
     inkscape:connector-curvature="0"
     style="opacity:0.2;stroke-width:0.19067797"
     inkscape:export-filename="C:\Users\alex\sites\word-logo-4.png"
     inkscape:export-xdpi="81.2043"
     inkscape:export-ydpi="81.2043" />
  <path
     d="m 4.1142036,2.9907053 h -1.27125 v 3.2415254 h 1.27125 A 0.25493644,0.25493644 0 0 0 4.3683773,5.978057 V 3.244879 A 0.25493644,0.25493644 0 0 0 4.1142036,2.9907053 Z"
     id="path16"
     inkscape:connector-curvature="0"
     style="opacity:0.2;stroke-width:0.19067797"
     inkscape:export-filename="C:\Users\alex\sites\word-logo-4.png"
     inkscape:export-xdpi="81.2043"
     inkscape:export-ydpi="81.2043" />
  <path
     d="m 1.5717036,2.9907053 h 2.5425 A 0.25417373,0.25417373 0 0 1 4.3683773,3.244879 v 2.5425 A 0.25417373,0.25417373 0 0 1 4.1142036,6.0415528 h -2.5425 A 0.25417373,0.25417373 0 0 1 1.3175299,5.787379 v -2.5425 A 0.25417373,0.25417373 0 0 1 1.5717036,2.9907053 Z"
     id="path18"
     inkscape:connector-curvature="0"
     style="fill:#185abd;stroke-width:0.19067797"
     inkscape:export-filename="C:\Users\alex\sites\word-logo-4.png"
     inkscape:export-xdpi="81.2043"
     inkscape:export-ydpi="81.2043" />
  <path
     d="M 3.5961316,5.4695189 H 3.2529112 L 2.8524875,4.1538409 2.432996,5.4695189 H 2.0897757 L 1.7084197,3.5627392 H 2.0516401 L 2.3185892,4.897485 2.7190129,3.6008748 h 0.286017 L 3.3863858,4.897485 3.653335,3.5627392 h 0.3241525 z"
     id="path20"
     inkscape:connector-curvature="0"
     style="fill:#ffffff;stroke-width:0.19067797"
     inkscape:export-filename="C:\Users\alex\sites\word-logo-4.png"
     inkscape:export-xdpi="81.2043"
     inkscape:export-ydpi="81.2043" />
  <path
     d="M 1.3175299,1.4652816 H 7.4192248 V 7.5669765 H 1.3175299 Z"
     id="path22"
     inkscape:connector-curvature="0"
     style="fill:none;stroke-width:0.19067797"
     inkscape:export-filename="C:\Users\alex\sites\word-logo-4.png"
     inkscape:export-xdpi="81.2043"
     inkscape:export-ydpi="81.2043" />
</svg>
